<?xml version="1.0" encoding="utf-8"?>
<!-- Generator: Adobe Illustrator 23.0.2, SVG Export Plug-In . SVG Version: 6.00 Build 0)  -->
<svg version="1.1" id="pickles2-logo" xmlns="http://www.w3.org/2000/svg" xmlns:xlink="http://www.w3.org/1999/xlink" x="0px"
	 y="0px" viewBox="0 0 345.9 84.3" style="enable-background:new 0 0 345.9 84.3;" xml:space="preserve">
<style type="text/css">
	.st0{fill:#00A0E6;}
	.st1{font-family:'EuphemiaUCAS';}
	.st2{font-size:60px;}
</style>
<g>
	<g>
		<path class="st0" d="M20.6,27c7.4,0,11,3.1,11,8.6c0,5.9-4.1,9.8-11.5,9.8c-0.9,0-2.1,0-3.2-0.2v10.9H14V27.7
			C16.4,27.2,18.7,27,20.6,27z M25.1,41.9c2.1-0.9,3.5-3,3.5-6c0-4.4-2.7-6.3-7.8-6.3c-1.2,0-2.5,0.1-3.8,0.3v12.8
			c1,0.1,2,0.1,2.9,0.1C21.9,42.8,23.8,42.6,25.1,41.9z"/>
		<path class="st0" d="M38.6,36.2l4.8,7.5l0,0l4.9-7.5H51c-0.1,0.6-0.4,1.2-0.8,1.7L45,45.6l6,8.8c0.3,0.6,0.7,1.1,0.7,1.7h-2.9
			l-5.7-8.5l0,0l-5.6,8.5h-2.6c0-0.6,0.4-1.2,0.8-1.7l5.9-8.8L36.3,38c-0.4-0.6-0.7-1.1-0.8-1.7L38.6,36.2L38.6,36.2z"/>
		<path class="st0" d="M62.9,27c5.7,0,8.3,3.9,8.3,8.2c0,5.4-4,10-9.2,15.2l-3.1,3.1h12.8l0.1,2.5H55.6l-0.3-2.7l3.8-3.8
			c5.6-5.6,9-9.8,9-14.2c0-3.3-1.8-5.8-5.5-5.8c-2,0-4,0.8-5.7,2l-1.4-1.8C57.6,27.9,60.2,27,62.9,27z"/>
	</g>
	<path class="st0" d="M0.8,0v82.5h82.5V0H0.8z M3.1,80.1V2.3h77.8v77.8C80.9,80.1,3.1,80.1,3.1,80.1z"/>
</g>
<text transform="matrix(1 0 0 1 109.4465 65.9)" class="st0 st1 st2">Burdock</text>
</svg>
